G04 ================== begin FILE IDENTIFICATION RECORD ==================*
G04 Layout Name:  C:/USERS/USER/DESKTOP/WORK_ORCAD/MY_TEST731/allegro/MY_TEST731.brd*
G04 Film Name:    BOTTOM*
G04 File Format:  Gerber RS274X*
G04 File Origin:  Cadence Allegro 17.2-P019*
G04 Origin Date:  Wed Jul 31 11:56:04 2019*
G04 *
G04 Layer:  ETCH/BOTTOM*
G04 Layer:  PIN/BOTTOM*
G04 Layer:  VIA CLASS/BOTTOM*
G04 *
G04 Offset:    (0.000 0.000)*
G04 Mirror:    No*
G04 Mode:      Positive*
G04 Rotation:  0*
G04 FullContactRelief:  No*
G04 UndefLineWidth:     0.000*
G04 ================== end FILE IDENTIFICATION RECORD ====================*
%FSLAX25Y25*MOMM*%
%IR0*IPPOS*OFA0.00000B0.00000*MIA0B0*SFA1.00000B1.00000*%
%ADD11C,1.524*%
%ADD13C,1.651*%
%ADD14R,1.524X1.524*%
%ADD12C,.61*%
%ADD10C,.635*%
%ADD15C,1.*%
%ADD16C,.5*%
%ADD18C,1.91*%
%ADD17C,1.782*%
G75*
%LPD*%
G75*
G36*
G01X754200Y477000D02*
Y754200D01*
X508000D01*
Y1535700D01*
G02X526600Y1541500I10199J18D01*
G03Y1642500I73400J50500D01*
G02X508000Y1648300I-8401J5782D01*
G01Y1789700D01*
G02X526600Y1795500I10199J18D01*
G03Y1896500I73400J50500D01*
G02X508000Y1902300I-8401J5782D01*
G01Y2043700D01*
G02X526600Y2049500I10199J18D01*
G03Y2150500I73400J50500D01*
G02X508000Y2156300I-8401J5782D01*
G01Y3233100D01*
G02X526100Y3239500I10195J-37D01*
G03X693600Y3318800I73876J60507D01*
G01X693100Y3321500D01*
X812600Y3441000D01*
Y5503500D01*
X858500Y5549400D01*
X2626700D01*
G03X2686400Y5688100I73314J50642D01*
G01X2683900Y5687700D01*
X2650600Y5721000D01*
Y6026700D01*
G03X2549400I-50600J73300D01*
G01Y5679000D01*
X2560400Y5668000D01*
G02X2553200Y5650600I-7194J-7213D01*
G01X816500D01*
X711400Y5545500D01*
Y3483000D01*
X621500Y3393100D01*
X618800Y3393600D01*
G03X526100Y3360500I-18832J-93617D01*
G02X508000Y3366900I-7905J6437D01*
G01Y4249100D01*
G02X526100Y4255500I10195J-37D01*
G03Y4376500I73900J60500D01*
G02X508000Y4382900I-7905J6437D01*
G01Y6245800D01*
X754200D01*
Y6477000D01*
X9245800D01*
Y6245800D01*
X9508000D01*
Y5342600D01*
X9335300D01*
G03Y5241400I-73300J-50600D01*
G01X9496000D01*
X9508000Y5229400D01*
Y3595300D01*
X9503600Y3594700D01*
G03X9465400Y3419000I12393J-94697D01*
G01Y2557400D01*
X9449400Y2541400D01*
Y2481000D01*
G03Y2319000I50600J-81000D01*
G01Y1520000D01*
X9377000Y1447600D01*
X8347500D01*
X8286600Y1386700D01*
G02X8269200Y1393900I-7213J7194D01*
G01Y2279900D01*
X8098500Y2450600D01*
X7881000D01*
G03Y2349400I-81000J-50600D01*
G01X8056500D01*
X8168000Y2237900D01*
Y1274400D01*
G02X8151000Y1266700I-10213J-67D01*
G03Y1133300I-59000J-66700D01*
G02X8168000Y1125600I6787J-7633D01*
G01Y585600D01*
X8108100Y525700D01*
X8105600Y526100D01*
G03X8011900Y477000I-13563J-88073D01*
G01X7918100D01*
G03X7757900I-80100J-39000D01*
G01X7375600D01*
Y2952800D01*
G03X7252800Y3075600I-75600J47200D01*
G01X7129700D01*
X7114200Y3060100D01*
X6063800D01*
X5981100Y3142800D01*
Y4285800D01*
X5845300Y4421600D01*
X5709200D01*
G03Y4270400I-47200J-75600D01*
G01X5782700D01*
X5829900Y4223200D01*
Y3080200D01*
X6001200Y2908900D01*
X7176800D01*
X7192300Y2924400D01*
X7224400D01*
Y477000D01*
X4321700D01*
X4321200Y477100D01*
G03X4278800I-21200J-93100D01*
G01X4278300Y477000D01*
X754200D01*
G37*
G36*
G01X8389500Y1346400D02*
X9419000D01*
X9490600Y1418000D01*
G02X9508000Y1410800I7213J-7194D01*
G01Y754200D01*
X9245800D01*
Y477000D01*
X8680100D01*
G03X8519900I-80100J-39000D01*
G01X8426100D01*
G03X8265900I-80100J-39000D01*
G01X8227200D01*
G02X8220000Y494400I-6J10187D01*
G01X8269200Y543600D01*
Y1126400D01*
G02X8286200Y1133900I10185J-69D01*
G03X8372700Y1285000I59769J66094D01*
G01X8369100Y1286100D01*
Y1326000D01*
X8389500Y1346400D01*
G37*
%LPC*%
G75*
G36*
G01X8410900Y5723800D02*
Y5876200D01*
G02X8423800Y5889100I12900J0D01*
G01X8576200D01*
G02X8589100Y5876200I0J-12900D01*
G01Y5723800D01*
G02X8576200Y5710900I-12900J0D01*
G01X8423800D01*
G02X8410900Y5723800I0J12900D01*
G37*
G36*
G01X4810900Y4523800D02*
Y4676200D01*
G02X4823800Y4689100I12900J0D01*
G01X4976200D01*
G02X4989100Y4676200I0J-12900D01*
G01Y4523800D01*
G02X4976200Y4510900I-12900J0D01*
G01X4823800D01*
G02X4810900Y4523800I0J12900D01*
G37*
G36*
G01X1710900Y2223800D02*
Y2376200D01*
G02X1723800Y2389100I12900J0D01*
G01X1876200D01*
G02X1889100Y2376200I0J-12900D01*
G01Y2223800D01*
G02X1876200Y2210900I-12900J0D01*
G01X1723800D01*
G02X1710900Y2223800I0J12900D01*
G37*
G36*
G01X6574600Y4929000D02*
Y4830400D01*
G02X6473400Y4797700I-28613J-84395D01*
G01Y4971000D01*
X6553000Y5050600D01*
X6726700D01*
G02Y4949400I73300J-50600D01*
G01X6595000D01*
X6574600Y4929000D01*
G37*
G36*
G01X8521500Y3593100D02*
X8585400Y3657000D01*
Y4973200D01*
G03X8567500Y4979800I-10188J-58D01*
G02Y5096200I-67500J58200D01*
G03X8585400Y5102800I7712J6658D01*
G01Y5135000D01*
X8516100Y5204300D01*
X8513600Y5203900D01*
G02X8449400Y5365300I-13594J88061D01*
G01Y5472700D01*
G02X8550600I50600J73300D01*
G01Y5365300D01*
G02X8588100Y5278400I-50570J-73364D01*
G01X8587700Y5275900D01*
X8686600Y5177000D01*
Y3615000D01*
X8593100Y3521500D01*
X8593600Y3518800D01*
G02X8518800Y3593600I-93600J-18800D01*
G01X8521500Y3593100D01*
G37*
G36*
G01X3448000Y3249400D02*
X3381000D01*
G02Y3350600I-81000J50600D01*
G01X3406000D01*
X3473400Y3418000D01*
Y4551000D01*
X3355800Y4668600D01*
G02X3472900Y4694700I44210J77386D01*
G01X3574600Y4593000D01*
Y3376000D01*
X3448000Y3249400D01*
G37*
G36*
G01X2209600Y3438000D02*
X2093100Y3321500D01*
X2093600Y3318800D01*
G02X2018800Y3393600I-93600J-18800D01*
G01X2021500Y3393100D01*
X2108400Y3480000D01*
Y4720000D01*
X2185000Y4796600D01*
X2626700D01*
G02Y4695400I73300J-50600D01*
G01X2227000D01*
X2209600Y4678000D01*
Y3438000D01*
G37*
G36*
G01X2750600Y5272700D02*
Y5073300D01*
G02X2626700Y4949400I-50600J-73300D01*
G01X1592000D01*
X1511100Y4868500D01*
Y3439500D01*
X1393100Y3321500D01*
X1393600Y3318800D01*
G02X1318800Y3393600I-93600J-18800D01*
G01X1321500Y3393100D01*
X1409900Y3481500D01*
Y4910500D01*
X1550000Y5050600D01*
X2626700D01*
G02X2649400Y5073300I73300J-50600D01*
G01Y5272700D01*
G02X2750600I50600J73300D01*
G37*
G36*
G01X5366600Y3953500D02*
Y2081000D01*
G02X5265400I-50600J-81000D01*
G01Y3911500D01*
X5245000Y3931900D01*
X4988500D01*
X4916100Y4004300D01*
X4913600Y4003900D01*
G02X4988100Y4078400I-13600J88100D01*
G01X4987700Y4075900D01*
X5030500Y4033100D01*
X5141700D01*
G03X5148900Y4050500I6J10187D01*
G01X5103400Y4096000D01*
Y5473900D01*
X4929000D01*
X4849400Y5553500D01*
Y5734700D01*
G02X4950600I50600J73300D01*
G01Y5595500D01*
X4971000Y5575100D01*
X5067300D01*
X5068400Y5578800D01*
G02X5204600Y5480700I85581J-24780D01*
G01Y4138000D01*
X5228000Y4114600D01*
X5499000D01*
X5527000Y4142600D01*
X5588700D01*
G02Y4041400I73300J-50600D01*
G01X5569000D01*
X5541000Y4013400D01*
X5331300D01*
G03X5324100Y3996000I-6J-10187D01*
G01X5366600Y3953500D01*
G37*
G36*
G01X4986800Y3858100D02*
X5028600Y3816300D01*
Y1275200D01*
X4884300Y1130900D01*
X1873700D01*
X1724400Y1280200D01*
Y1490800D01*
G02X1875600I75600J47200D01*
G01Y1342800D01*
X1936300Y1282100D01*
X4821700D01*
X4877400Y1337800D01*
Y3751700D01*
X4873800Y3752800D01*
G02X4986500Y3859500I26214J85181D01*
G01X4986800Y3858100D01*
G37*
G36*
G01X7480900Y3005700D02*
X7224400Y3262200D01*
Y3460800D01*
G02X7375600I75600J47200D01*
G01Y3324800D01*
X7447700Y3252700D01*
G03X7465100Y3259300I7206J7240D01*
G02X7559300Y3165100I88900J-5300D01*
G03X7552700Y3147700I640J-10194D01*
G01X7632100Y3068300D01*
Y1337800D01*
X7687800Y1282100D01*
X7803400D01*
G02X7781800Y1130900I34614J-82088D01*
G01X7625200D01*
X7480900Y1275200D01*
Y3005700D01*
G37*
G36*
G01X8510900Y1123800D02*
Y1276200D01*
G02X8523800Y1289100I12900J0D01*
G01X8676200D01*
G02X8689100Y1276200I0J-12900D01*
G01Y1123800D01*
G02X8676200Y1110900I-12900J0D01*
G01X8523800D01*
G02X8510900Y1123800I0J12900D01*
G37*
G54D18*
X1300000Y4316000D03*
X2600000Y3300000D03*
X2000000Y4316000D03*
X2600000D03*
X3300000D03*
X4100000Y4300000D03*
Y5316000D03*
X4300000Y1400000D03*
Y2000000D03*
X5800000Y1400000D03*
Y2416000D03*
X6784000Y2400000D03*
X7600000Y4500000D03*
Y5516000D03*
X8484000Y2400000D03*
G54D17*
X1800000Y1792000D03*
Y2046000D03*
X2562000Y1538000D03*
Y1792000D03*
Y2046000D03*
Y2300000D03*
X3400000Y5000000D03*
X2854000Y6100000D03*
X4900000Y4346000D03*
Y5300000D03*
X5662000Y3838000D03*
Y4600000D03*
X6800000Y1000000D03*
Y1254000D03*
Y4492000D03*
X9262000Y5038000D03*
Y5546000D03*
Y5800000D03*
%LPD*%
G75*
G54D10*
X500000Y500000D03*
Y6500000D03*
X9500000Y500000D03*
Y6500000D03*
G54D11*
X600000Y1592000D03*
Y1846000D03*
Y2100000D03*
X1800000Y1538000D03*
Y1792000D03*
Y2046000D03*
X2562000Y1538000D03*
Y1792000D03*
Y2046000D03*
Y2300000D03*
X2700000Y4746000D03*
Y5000000D03*
Y5346000D03*
Y5600000D03*
X2600000Y6100000D03*
X3400000Y4746000D03*
Y5000000D03*
X2854000Y6100000D03*
X4900000Y3838000D03*
Y4092000D03*
Y4346000D03*
Y5300000D03*
Y5808000D03*
X5662000Y3838000D03*
Y4092000D03*
Y4346000D03*
Y4600000D03*
X5154000Y5554000D03*
X6800000Y1000000D03*
Y1254000D03*
X7300000Y3000000D03*
Y3508000D03*
X6800000Y4492000D03*
X6546000Y4746000D03*
X6800000Y5000000D03*
X7838000Y438000D03*
Y1200000D03*
X7554000Y3254000D03*
X8092000Y438000D03*
X8346000D03*
X8600000D03*
X8092000Y1200000D03*
X8346000D03*
X8500000Y5038000D03*
Y5292000D03*
Y5546000D03*
X9262000Y5038000D03*
Y5292000D03*
Y5546000D03*
Y5800000D03*
G54D12*
X630500Y1846000D03*
X1800000Y1538000D03*
Y2046000D03*
X2600000Y6100000D03*
X3300000Y4316000D03*
X4300000Y1400000D03*
X7800000Y2400000D03*
X7254500Y3000000D03*
X7600000Y5516000D03*
X8500000Y5546000D03*
X9262000Y5292000D03*
G54D13*
X600000Y3300000D03*
Y4316000D03*
X1300000Y3300000D03*
Y4316000D03*
X2000000Y3300000D03*
X2600000D03*
X2000000Y4316000D03*
X2600000D03*
X3300000Y3300000D03*
Y4316000D03*
X4100000Y4300000D03*
Y5316000D03*
X4300000Y384000D03*
Y1400000D03*
Y2000000D03*
X5316000D03*
X5800000Y1400000D03*
Y2416000D03*
X6784000Y2400000D03*
X7800000D03*
X7600000Y4500000D03*
Y5516000D03*
X8484000Y2400000D03*
X8500000Y3500000D03*
X9500000Y2400000D03*
X9516000Y3500000D03*
G54D14*
X1800000Y2300000D03*
X4900000Y4600000D03*
X8600000Y1200000D03*
X8500000Y5800000D03*
G54D15*
G01X600000Y4316000D02*
X538500Y4254500D01*
X481000D01*
X381000Y4154500D01*
Y1968500D01*
X503500Y1846000D01*
X600000D01*
G01X630500D02*
X600000D01*
G01Y1751800D02*
Y1846000D01*
G01D02*
Y1940200D01*
G01Y4215400D02*
Y4316000D01*
G01D02*
Y4416600D01*
G01X4900000Y3838000D02*
X4953000Y3785000D01*
Y1306500D01*
X4853000Y1206500D01*
X1905000D01*
X1800000Y1311500D01*
Y1538000D01*
G01X1899400Y4316000D02*
X2000000D01*
G01X1300000Y4215400D02*
Y4316000D01*
G01D02*
Y4416600D01*
G01X1199400Y4316000D02*
X1300000D01*
G01X2745300Y4170700D02*
X2600000Y4316000D01*
G01Y4215400D02*
Y4316000D01*
G01D02*
Y4416600D01*
G01X2499400Y4316000D02*
X2600000D01*
G01D02*
X2700600D01*
G01X2000000Y4215400D02*
Y4316000D01*
G01D02*
Y4416600D01*
G01X4154600Y2000000D02*
X4123100Y1968500D01*
X2857500D01*
X2745300Y2080700D01*
Y4170700D01*
G01X4300000Y2000000D02*
X4154600D01*
G01X4300000D02*
Y1400000D01*
G01Y2000000D02*
Y2100600D01*
G01Y2000000D02*
X4400600D01*
G01X7254500Y3000000D02*
X7161000D01*
X7145500Y2984500D01*
X6032500D01*
X5905500Y3111500D01*
Y4254500D01*
X5814000Y4346000D01*
X5662000D01*
G01X6800000Y1159800D02*
Y1254000D01*
G01D02*
Y1348200D01*
G01X6705800Y1254000D02*
X6800000D01*
G01D02*
X6894200D01*
G01X7300000Y3000000D02*
Y383500D01*
X7400000Y283500D01*
X8191500D01*
X8346000Y438000D01*
G01X7997800Y1200000D02*
X8092000D01*
G01X7838000D02*
X7831500Y1206500D01*
X7656500D01*
X7556500Y1306500D01*
Y3037000D01*
X7300000Y3293500D01*
Y3508000D01*
G01X7254500Y3000000D02*
X7300000D01*
G01X8092000Y1105800D02*
Y1200000D01*
G01D02*
Y1294200D01*
G54D16*
G01X600000Y3300000D02*
X762000Y3462000D01*
Y5524500D01*
X837500Y5600000D01*
X2700000D01*
G01X1300000Y3300000D02*
X1460500Y3460500D01*
Y4889500D01*
X1571000Y5000000D01*
X2700000D01*
G01X2000000Y3300000D02*
X2159000Y3459000D01*
Y4699000D01*
X2206000Y4746000D01*
X2700000D01*
G01X2600000Y6100000D02*
Y5700000D01*
X2700000Y5600000D01*
G01X3300000Y3300000D02*
X3427000D01*
X3524000Y3397000D01*
Y4572000D01*
X3400000Y4696000D01*
Y4746000D01*
G01X2700000Y5346000D02*
Y5000000D01*
G01X4900000Y4092000D02*
X5009500Y3982500D01*
X5266000D01*
X5316000Y3932500D01*
Y2000000D01*
G01X4900000Y5808000D02*
Y5574500D01*
X4950000Y5524500D01*
X5124500D01*
X5154000Y5554000D01*
G01X5662000Y4092000D02*
X5548000D01*
X5520000Y4064000D01*
X5207000D01*
X5154000Y4117000D01*
Y5554000D01*
G01X6800000Y5000000D02*
X6574000D01*
X6524000Y4950000D01*
Y4768000D01*
X6546000Y4746000D01*
G01X8092000Y438000D02*
X8218600Y564600D01*
Y2258900D01*
X8077500Y2400000D01*
X7800000D01*
G01X8346000Y1200000D02*
X8318500Y1227500D01*
Y1347000D01*
X8368500Y1397000D01*
X9398000D01*
X9500000Y1499000D01*
Y2400000D01*
G01X8500000Y3500000D02*
X8636000Y3636000D01*
Y5156000D01*
X8500000Y5292000D01*
G01Y5546000D02*
Y5292000D01*
G01X9516000Y3500000D02*
Y2536400D01*
X9500000Y2520400D01*
Y2400000D01*
G01X9262000Y5292000D02*
X9517000D01*
X9567000Y5242000D01*
Y3551000D01*
X9516000Y3500000D01*
M02*
