G04 ================== begin FILE IDENTIFICATION RECORD ==================*
G04 Layout Name:  C:/USERS/USER/DESKTOP/WORK_ORCAD/MY_TEST731/allegro/MY_TEST731.brd*
G04 Film Name:    SilkT*
G04 File Format:  Gerber RS274X*
G04 File Origin:  Cadence Allegro 17.2-P019*
G04 Origin Date:  Wed Jul 31 12:00:46 2019*
G04 *
G04 Layer:  REF DES/SILKSCREEN_TOP*
G04 Layer:  PACKAGE GEOMETRY/SILKSCREEN_TOP*
G04 Layer:  BOARD GEOMETRY/SILKSCREEN_TOP*
G04 *
G04 Offset:    (0.000 0.000)*
G04 Mirror:    No*
G04 Mode:      Positive*
G04 Rotation:  0*
G04 FullContactRelief:  No*
G04 UndefLineWidth:     0.200*
G04 ================== end FILE IDENTIFICATION RECORD ====================*
%FSLAX25Y25*MOMM*%
%IR0*IPPOS*OFA0.00000B0.00000*MIA0B0*SFA1.00000B1.00000*%
%ADD10C,.4*%
%ADD11C,.2*%
G75*
%LPD*%
G75*
G54D10*
G01X5141700Y200000D02*
X5108300D01*
Y600000D01*
X5141700D01*
G01X5128300Y406700D02*
X5108300D01*
G01X5173500Y600000D02*
Y200000D01*
X5206900D01*
G01X5272100D02*
X5238700D01*
Y600000D01*
X5272100D01*
G01X5258700Y406700D02*
X5238700D01*
G01X5338900Y566700D02*
X5333900Y586700D01*
X5328100Y600000D01*
X5321400D01*
X5313900Y580000D01*
X5308100Y546700D01*
X5303900Y506700D01*
X5300600Y440000D01*
X5299800Y380000D01*
X5301400Y320000D01*
X5303900Y280000D01*
X5308900Y240000D01*
X5314800Y213300D01*
X5320600Y200000D01*
X5326400D01*
X5332300Y213300D01*
X5337300Y233300D01*
X5341400Y260000D01*
G01X5385800Y600000D02*
Y200000D01*
G01X5366600Y600000D02*
X5405000D01*
G01X5434300Y200000D02*
Y600000D01*
X5455200D01*
X5461800Y580000D01*
X5466000Y553300D01*
X5467700Y500000D01*
X5466000Y446700D01*
X5461000Y413300D01*
X5455200Y393300D01*
X5434300D01*
G01X5455200D02*
X5467700Y200000D01*
G01X5516200D02*
X5509500Y206700D01*
X5503700Y233300D01*
X5498700Y273300D01*
X5495400Y320000D01*
X5493700Y373300D01*
Y426700D01*
X5495400Y480000D01*
X5498700Y526700D01*
X5503700Y566700D01*
X5509500Y593300D01*
X5516200Y600000D01*
X5522900Y593300D01*
X5528700Y566700D01*
X5533700Y526700D01*
X5537000Y480000D01*
X5538700Y426700D01*
Y373300D01*
X5537000Y320000D01*
X5533700Y273300D01*
X5528700Y233300D01*
X5522900Y206700D01*
X5516200Y200000D01*
G01X5562200D02*
Y600000D01*
X5600600Y200000D01*
Y600000D01*
G01X5636600D02*
X5656600D01*
G01X5646600D02*
Y200000D01*
G01X5636600D02*
X5656600D01*
G01X5730100Y566700D02*
X5725100Y586700D01*
X5719300Y600000D01*
X5712600D01*
X5705100Y580000D01*
X5699300Y546700D01*
X5695100Y506700D01*
X5691800Y440000D01*
X5691000Y380000D01*
X5692600Y320000D01*
X5695100Y280000D01*
X5700100Y240000D01*
X5706000Y213300D01*
X5711800Y200000D01*
X5717600D01*
X5723500Y213300D01*
X5728500Y233300D01*
X5732600Y260000D01*
G01X5860500Y566700D02*
X5855500Y586700D01*
X5849700Y600000D01*
X5843000D01*
X5835500Y580000D01*
X5829700Y546700D01*
X5825500Y506700D01*
X5822200Y440000D01*
X5821400Y380000D01*
X5823000Y320000D01*
X5825500Y280000D01*
X5830500Y240000D01*
X5836400Y213300D01*
X5842200Y200000D01*
X5848000D01*
X5853900Y213300D01*
X5858900Y233300D01*
X5863000Y260000D01*
G01X5886600Y200000D02*
X5907400Y600000D01*
X5928200Y200000D01*
G01X5920700Y340000D02*
X5894100D01*
G01X5979300Y413300D02*
X5982600Y433300D01*
X5985100Y466700D01*
X5986800Y513300D01*
X5985100Y553300D01*
X5981800Y580000D01*
X5975900Y600000D01*
X5953400D01*
Y200000D01*
X5980900D01*
X5986800Y226700D01*
X5990100Y266700D01*
X5991800Y313300D01*
X5990100Y360000D01*
X5985100Y400000D01*
X5979300Y413300D01*
X5953400D01*
G01X6087200Y533300D02*
X6092200Y573300D01*
X6098000Y593300D01*
X6104700Y600000D01*
X6113000Y586700D01*
X6118800Y553300D01*
X6120500Y513300D01*
X6119700Y473300D01*
X6116300Y440000D01*
X6099700Y373300D01*
X6092200Y326700D01*
X6087200Y260000D01*
X6085500Y200000D01*
X6120500D01*
G01X6168200Y600000D02*
X6161500Y586700D01*
X6156500Y553300D01*
X6153200Y513300D01*
X6150700Y460000D01*
X6149900Y400000D01*
X6150700Y340000D01*
X6153200Y286700D01*
X6156500Y246700D01*
X6161500Y213300D01*
X6168200Y200000D01*
X6174900Y213300D01*
X6179900Y246700D01*
X6183200Y286700D01*
X6185700Y340000D01*
X6186500Y400000D01*
X6185700Y460000D01*
X6183200Y513300D01*
X6179900Y553300D01*
X6174900Y586700D01*
X6168200Y600000D01*
G01X6233400Y200000D02*
Y600000D01*
X6223400Y520000D01*
G01Y200000D02*
X6243400D01*
G01X6284400Y246700D02*
X6290300Y213300D01*
X6296900Y200000D01*
X6303600Y213300D01*
X6309400Y253300D01*
X6313600Y313300D01*
X6315300Y373300D01*
Y446700D01*
X6313600Y506700D01*
X6309400Y560000D01*
X6304400Y586700D01*
X6298600Y600000D01*
X6291900Y586700D01*
X6286900Y560000D01*
X6283600Y520000D01*
X6281900Y466700D01*
X6283600Y420000D01*
X6287800Y373300D01*
X6292800Y346700D01*
X6298600Y340000D01*
X6305300Y353300D01*
X6310300Y386700D01*
X6315300Y446700D01*
G01X6429000Y600000D02*
X6422300Y586700D01*
X6417300Y553300D01*
X6414000Y513300D01*
X6411500Y460000D01*
X6410700Y400000D01*
X6411500Y340000D01*
X6414000Y286700D01*
X6417300Y246700D01*
X6422300Y213300D01*
X6429000Y200000D01*
X6435700Y213300D01*
X6440700Y246700D01*
X6444000Y286700D01*
X6446500Y340000D01*
X6447300Y400000D01*
X6446500Y460000D01*
X6444000Y513300D01*
X6440700Y553300D01*
X6435700Y586700D01*
X6429000Y600000D01*
G01X6492500Y200000D02*
X6494200Y286700D01*
X6496700Y360000D01*
X6500000Y426700D01*
X6504200Y500000D01*
X6510900Y600000D01*
X6477500D01*
G01X6606300Y280000D02*
X6611300Y233300D01*
X6617900Y206700D01*
X6625400Y200000D01*
X6632100Y206700D01*
X6638800Y240000D01*
X6642900Y280000D01*
X6643800Y320000D01*
X6642100Y366700D01*
X6636300Y400000D01*
X6630400Y413300D01*
X6622900D01*
G01X6630400D02*
X6635400Y433300D01*
X6639600Y466700D01*
X6641300Y506700D01*
X6639600Y546700D01*
X6635400Y580000D01*
X6627900Y600000D01*
X6620400Y593300D01*
X6612900Y566700D01*
G01X6689800Y200000D02*
Y600000D01*
X6679800Y520000D01*
G01Y200000D02*
X6699800D01*
G01X5543300Y6766700D02*
X5538300Y6786700D01*
X5532500Y6800000D01*
X5525800D01*
X5518300Y6780000D01*
X5512500Y6746700D01*
X5508300Y6706700D01*
X5505000Y6640000D01*
X5504200Y6580000D01*
X5505800Y6520000D01*
X5508300Y6480000D01*
X5513300Y6440000D01*
X5519200Y6413300D01*
X5525000Y6400000D01*
X5530800D01*
X5536700Y6413300D01*
X5541700Y6433300D01*
X5545800Y6460000D01*
G01X5572700Y6400000D02*
Y6800000D01*
G01X5607700D02*
Y6400000D01*
G01Y6600000D02*
X5572700D01*
G01X5655400Y6400000D02*
X5648700Y6406700D01*
X5642900Y6433300D01*
X5637900Y6473300D01*
X5634600Y6520000D01*
X5632900Y6573300D01*
Y6626700D01*
X5634600Y6680000D01*
X5637900Y6726700D01*
X5642900Y6766700D01*
X5648700Y6793300D01*
X5655400Y6800000D01*
X5662100Y6793300D01*
X5667900Y6766700D01*
X5672900Y6726700D01*
X5676200Y6680000D01*
X5677900Y6626700D01*
Y6573300D01*
X5676200Y6520000D01*
X5672900Y6473300D01*
X5667900Y6433300D01*
X5662100Y6406700D01*
X5655400Y6400000D01*
G01X5703900D02*
Y6800000D01*
X5723900D01*
X5730600Y6780000D01*
X5735600Y6733300D01*
X5737300Y6680000D01*
X5735600Y6626700D01*
X5731400Y6586700D01*
X5723900Y6566700D01*
X5703900D01*
G01X5769100Y6400000D02*
Y6800000D01*
X5789100D01*
X5795800Y6780000D01*
X5800800Y6733300D01*
X5802500Y6680000D01*
X5800800Y6626700D01*
X5796600Y6586700D01*
X5789100Y6566700D01*
X5769100D01*
G01X5841000Y6800000D02*
X5861000D01*
G01X5851000D02*
Y6400000D01*
G01X5841000D02*
X5861000D01*
G01X5897000D02*
Y6800000D01*
X5935400Y6400000D01*
Y6800000D01*
G01X5986400Y6600000D02*
X6003100D01*
Y6480000D01*
X5998100Y6440000D01*
X5992200Y6413300D01*
X5983900Y6400000D01*
X5975600Y6413300D01*
X5969700Y6440000D01*
X5964700Y6480000D01*
X5961400Y6526700D01*
X5959700Y6580000D01*
Y6626700D01*
X5961400Y6666700D01*
X5964700Y6713300D01*
X5969700Y6753300D01*
X5974700Y6780000D01*
X5981400Y6800000D01*
X5987200D01*
X5993900Y6786700D01*
X5998900Y6760000D01*
G01X6086800Y6800000D02*
X6098500Y6400000D01*
X6111800Y6800000D01*
X6125100Y6400000D01*
X6136800Y6800000D01*
G01X6156200Y6400000D02*
X6177000Y6800000D01*
X6197800Y6400000D01*
G01X6190300Y6540000D02*
X6163700D01*
G01X6221400Y6800000D02*
X6242200Y6400000D01*
X6263000Y6800000D01*
G01X6324100Y6400000D02*
X6290700D01*
Y6800000D01*
X6324100D01*
G01X6310700Y6606700D02*
X6290700D01*
G01X6437800Y6400000D02*
X6431100Y6406700D01*
X6425300Y6433300D01*
X6420300Y6473300D01*
X6417000Y6520000D01*
X6415300Y6573300D01*
Y6626700D01*
X6417000Y6680000D01*
X6420300Y6726700D01*
X6425300Y6766700D01*
X6431100Y6793300D01*
X6437800Y6800000D01*
X6444500Y6793300D01*
X6450300Y6766700D01*
X6455300Y6726700D01*
X6458600Y6680000D01*
X6460300Y6626700D01*
Y6573300D01*
X6458600Y6520000D01*
X6455300Y6473300D01*
X6450300Y6433300D01*
X6444500Y6406700D01*
X6437800Y6400000D01*
G01X6485500Y6453300D02*
X6492200Y6420000D01*
X6499700Y6400000D01*
X6506300D01*
X6513000Y6420000D01*
X6518000Y6453300D01*
X6520500Y6500000D01*
X6518800Y6546700D01*
X6514700Y6586700D01*
X6507200Y6613300D01*
X6497200Y6626700D01*
X6491300Y6653300D01*
X6488800Y6700000D01*
X6490500Y6746700D01*
X6494700Y6780000D01*
X6500500Y6800000D01*
X6506300D01*
X6512200Y6786700D01*
X6517200Y6753300D01*
G01X6586500Y6766700D02*
X6581500Y6786700D01*
X6575700Y6800000D01*
X6569000D01*
X6561500Y6780000D01*
X6555700Y6746700D01*
X6551500Y6706700D01*
X6548200Y6640000D01*
X6547400Y6580000D01*
X6549000Y6520000D01*
X6551500Y6480000D01*
X6556500Y6440000D01*
X6562400Y6413300D01*
X6568200Y6400000D01*
X6574000D01*
X6579900Y6413300D01*
X6584900Y6433300D01*
X6589000Y6460000D01*
G54D11*
G01X473000Y2227000D02*
X727000D01*
Y1465000D01*
X473000D01*
Y2227000D01*
G01X765600Y2209700D02*
X757800Y2204800D01*
X752500Y2199000D01*
X749900Y2192100D01*
X752500Y2184400D01*
X757800Y2178500D01*
X765600Y2172700D01*
X776100Y2170700D01*
X828600D01*
G01X749900Y2111500D02*
X828600D01*
X812900Y2123200D01*
G01X749900D02*
Y2099800D01*
G01X749400Y3922300D02*
Y4001000D01*
X773800D01*
X781600Y3997100D01*
X786400Y3991800D01*
X788400Y3981300D01*
X786400Y3970800D01*
X780600Y3964300D01*
X773800Y3960300D01*
X749400D01*
G01X773800D02*
X788400Y3922300D01*
G01X826200Y3934100D02*
X832000Y3927500D01*
X838800Y3923600D01*
X847600Y3922300D01*
X856400Y3924900D01*
X863200Y3930200D01*
X868000Y3939400D01*
X869000Y3949800D01*
X867100Y3960300D01*
X862200Y3966900D01*
X855400Y3972100D01*
X848600Y3973500D01*
X841800Y3972100D01*
X833000Y3966900D01*
X835900Y4001000D01*
X862200D01*
G01X473000Y3452400D02*
Y4163600D01*
X727000D01*
Y3452400D01*
X473000D01*
G01X1449400Y3922300D02*
Y4001000D01*
X1473800D01*
X1481600Y3997100D01*
X1486400Y3991800D01*
X1488400Y3981300D01*
X1486400Y3970800D01*
X1480600Y3964300D01*
X1473800Y3960300D01*
X1449400D01*
G01X1473800D02*
X1488400Y3922300D01*
G01X1529100Y3955100D02*
X1535900Y3964300D01*
X1541800Y3969500D01*
X1549500Y3972100D01*
X1556400Y3969500D01*
X1561200Y3964300D01*
X1565100Y3956400D01*
X1566100Y3947200D01*
X1565100Y3939400D01*
X1561200Y3931500D01*
X1555400Y3924900D01*
X1548600Y3922300D01*
X1540800Y3924900D01*
X1534000Y3932800D01*
X1530100Y3944600D01*
X1529100Y3957700D01*
X1531100Y3974800D01*
X1534000Y3983900D01*
X1538800Y3993100D01*
X1545700Y3999700D01*
X1552500Y4001000D01*
X1559300Y3998400D01*
X1564100Y3991800D01*
G01X1173000Y3452400D02*
Y4163600D01*
X1427000D01*
Y3452400D01*
X1173000D01*
G01X1901600Y2427000D02*
X2054000D01*
X2117500Y2363500D01*
X2244500D01*
X2308000Y2427000D01*
X2460400D01*
Y1411000D01*
X1901600D01*
Y2427000D01*
G01X2149400Y3922300D02*
Y4001000D01*
X2173800D01*
X2181600Y3997100D01*
X2186400Y3991800D01*
X2188400Y3981300D01*
X2186400Y3970800D01*
X2180600Y3964300D01*
X2173800Y3960300D01*
X2149400D01*
G01X2173800D02*
X2188400Y3922300D01*
G01X2245700D02*
X2247600Y3939400D01*
X2250500Y3953800D01*
X2254400Y3966900D01*
X2259300Y3981300D01*
X2267100Y4001000D01*
X2228100D01*
G01X1873000Y3452400D02*
Y4163600D01*
X2127000D01*
Y3452400D01*
X1873000D01*
G01X2473000D02*
Y4163600D01*
X2727000D01*
Y3452400D01*
X2473000D01*
G01X2954000Y4873000D02*
G03I-254000J0D01*
G01Y5473000D02*
G03I-254000J0D01*
G01X2981000Y6100000D02*
G03I-254000J0D01*
G01X2705700Y2282200D02*
Y2191200D01*
X2712100Y2172100D01*
X2725000Y2159400D01*
X2741000Y2155200D01*
X2757100Y2159400D01*
X2770000Y2172100D01*
X2776400Y2191200D01*
Y2282200D01*
G01X2889900Y2155200D02*
Y2282200D01*
X2830300Y2191200D01*
X2910800D01*
G01X3173000Y3452400D02*
Y4163600D01*
X3427000D01*
Y3452400D01*
X3173000D01*
G01X2749400Y3922300D02*
Y4001000D01*
X2773800D01*
X2781600Y3997100D01*
X2786400Y3991800D01*
X2788400Y3981300D01*
X2786400Y3970800D01*
X2780600Y3964300D01*
X2773800Y3960300D01*
X2749400D01*
G01X2773800D02*
X2788400Y3922300D01*
G01X2847600D02*
X2854400Y3923600D01*
X2862200Y3927500D01*
X2867100Y3934100D01*
X2869000Y3943300D01*
X2867100Y3952500D01*
X2861200Y3960300D01*
X2852500Y3964300D01*
X2842700D01*
X2836900Y3966900D01*
X2832000Y3973500D01*
X2830100Y3982600D01*
X2833000Y3991800D01*
X2839800Y3998400D01*
X2847600Y4001000D01*
X2855400Y3998400D01*
X2862200Y3991800D01*
X2865100Y3982600D01*
X2863200Y3973500D01*
X2858300Y3966900D01*
X2852500Y3964300D01*
X2842700D01*
X2834000Y3960300D01*
X2828100Y3952500D01*
X2826200Y3943300D01*
X2828100Y3934100D01*
X2833000Y3927500D01*
X2840800Y3923600D01*
X2847600Y3922300D01*
G01X3654000Y4873000D02*
G03I-254000J0D01*
G01X3237400Y4528000D02*
X3247000Y4521600D01*
X3258300Y4517400D01*
X3271100D01*
X3285600Y4523800D01*
X3296900Y4534300D01*
X3304900Y4547000D01*
X3311400Y4568200D01*
X3313000Y4587300D01*
X3309700Y4606300D01*
X3304900Y4619000D01*
X3295300Y4631700D01*
X3284000Y4640200D01*
X3272800Y4644400D01*
X3261500D01*
X3250200Y4640200D01*
X3240600Y4633800D01*
X3232500Y4625400D01*
G01X3178600Y4619000D02*
X3169000Y4633800D01*
X3156100Y4642300D01*
X3141600Y4644400D01*
X3128800Y4642300D01*
X3115900Y4631700D01*
X3107900Y4619000D01*
X3106300Y4606300D01*
X3109500Y4591500D01*
X3120700Y4580900D01*
X3132000Y4576700D01*
X3146500D01*
G01X3132000D02*
X3122300Y4570300D01*
X3114300Y4559700D01*
X3111100Y4547000D01*
X3114300Y4534300D01*
X3122300Y4523800D01*
X3136800Y4517400D01*
X3151300Y4519500D01*
X3165800Y4528000D01*
G01X3237400Y5128000D02*
X3247000Y5121600D01*
X3258300Y5117400D01*
X3271100D01*
X3285600Y5123800D01*
X3296900Y5134300D01*
X3304900Y5147000D01*
X3311400Y5168200D01*
X3313000Y5187300D01*
X3309700Y5206300D01*
X3304900Y5219000D01*
X3295300Y5231700D01*
X3284000Y5240200D01*
X3272800Y5244400D01*
X3261500D01*
X3250200Y5240200D01*
X3240600Y5233800D01*
X3232500Y5225400D01*
G01X3173800Y5138600D02*
X3164200Y5125900D01*
X3152900Y5119500D01*
X3140000Y5117400D01*
X3123900Y5121600D01*
X3112700Y5132200D01*
X3109500Y5144900D01*
X3111100Y5157600D01*
X3117500Y5168200D01*
X3149700Y5189400D01*
X3164200Y5204200D01*
X3173800Y5225400D01*
X3177000Y5244400D01*
X3109500D01*
G01X3072000Y6637400D02*
X3078400Y6647000D01*
X3082600Y6658300D01*
Y6671100D01*
X3076200Y6685600D01*
X3065700Y6696900D01*
X3053000Y6704900D01*
X3031800Y6711400D01*
X3012700Y6713000D01*
X2993700Y6709700D01*
X2981000Y6704900D01*
X2968300Y6695300D01*
X2959800Y6684000D01*
X2955600Y6672800D01*
Y6661500D01*
X2959800Y6650200D01*
X2966200Y6640600D01*
X2974600Y6632500D01*
G01X2955600Y6543300D02*
X3082600D01*
X3057200Y6562600D01*
G01X2955600D02*
Y6524000D01*
G01X4189900Y777700D02*
Y699000D01*
X4165500D01*
X4157700Y702900D01*
X4152900Y708200D01*
X4150900Y718700D01*
X4152900Y729200D01*
X4158700Y735700D01*
X4165500Y739700D01*
X4189900D01*
G01X4165500D02*
X4150900Y777700D01*
G01X4091700D02*
Y699000D01*
X4103400Y714700D01*
G01Y777700D02*
X4080000D01*
G01X4034400Y762000D02*
X4028600Y771100D01*
X4020800Y776400D01*
X4012000Y777700D01*
X4004200Y776400D01*
X3996500Y769800D01*
X3991600Y762000D01*
X3990600Y754100D01*
X3992600Y744900D01*
X3999400Y738400D01*
X4006200Y735700D01*
X4014900D01*
G01X4006200D02*
X4000300Y731800D01*
X3995500Y725200D01*
X3993500Y717400D01*
X3995500Y709500D01*
X4000300Y702900D01*
X4009100Y699000D01*
X4017900Y700300D01*
X4026600Y705600D01*
G01X3449400Y3922300D02*
Y4001000D01*
X3473800D01*
X3481600Y3997100D01*
X3486400Y3991800D01*
X3488400Y3981300D01*
X3486400Y3970800D01*
X3480600Y3964300D01*
X3473800Y3960300D01*
X3449400D01*
G01X3473800D02*
X3488400Y3922300D01*
G01X3526200Y3938000D02*
X3532000Y3928900D01*
X3539800Y3923600D01*
X3548600Y3922300D01*
X3556400Y3923600D01*
X3564100Y3930200D01*
X3569000Y3938000D01*
X3570000Y3945900D01*
X3568000Y3955100D01*
X3561200Y3961600D01*
X3554400Y3964300D01*
X3545700D01*
G01X3554400D02*
X3560300Y3968200D01*
X3565100Y3974800D01*
X3567100Y3982600D01*
X3565100Y3990500D01*
X3560300Y3997100D01*
X3551500Y4001000D01*
X3542700Y3999700D01*
X3534000Y3994400D01*
G01X3937400Y4528000D02*
X3947000Y4521600D01*
X3958300Y4517400D01*
X3971100D01*
X3985600Y4523800D01*
X3996900Y4534300D01*
X4004900Y4547000D01*
X4011400Y4568200D01*
X4013000Y4587300D01*
X4009700Y4606300D01*
X4004900Y4619000D01*
X3995300Y4631700D01*
X3984000Y4640200D01*
X3972800Y4644400D01*
X3961500D01*
X3950200Y4640200D01*
X3940600Y4633800D01*
X3932500Y4625400D01*
G01X3823900Y4644400D02*
Y4517400D01*
X3883500Y4608400D01*
X3803000D01*
G01X3973000Y4452400D02*
Y5163600D01*
X4227000D01*
Y4452400D01*
X3973000D01*
G01X4427000Y1247600D02*
Y536400D01*
X4173000D01*
Y1247600D01*
X4427000D01*
G01X4922300Y1850600D02*
X5001000D01*
Y1826200D01*
X4997100Y1818400D01*
X4991800Y1813600D01*
X4981300Y1811600D01*
X4970800Y1813600D01*
X4964300Y1819400D01*
X4960300Y1826200D01*
Y1850600D01*
G01Y1826200D02*
X4922300Y1811600D01*
G01X4931500Y1768900D02*
X4924900Y1762100D01*
X4922300Y1754300D01*
X4924900Y1746600D01*
X4932800Y1739700D01*
X4944600Y1734900D01*
X4956400Y1732900D01*
X4970800D01*
X4982600Y1734900D01*
X4993100Y1739700D01*
X4998400Y1745600D01*
X5001000Y1752400D01*
X4998400Y1760200D01*
X4993100Y1766000D01*
X4985300Y1769900D01*
X4974800Y1771900D01*
X4965600Y1769900D01*
X4956400Y1765100D01*
X4951200Y1759200D01*
X4949800Y1752400D01*
X4952500Y1744600D01*
X4959000Y1738800D01*
X4970800Y1732900D01*
G01X4452400Y2127000D02*
X5163600D01*
Y1873000D01*
X4452400D01*
Y2127000D01*
G01X4249400Y4922300D02*
Y5001000D01*
X4273800D01*
X4281600Y4997100D01*
X4286400Y4991800D01*
X4288400Y4981300D01*
X4286400Y4970800D01*
X4280600Y4964300D01*
X4273800Y4960300D01*
X4249400D01*
G01X4273800D02*
X4288400Y4922300D01*
G01X4329100Y4987900D02*
X4334900Y4995800D01*
X4341800Y4999700D01*
X4349500Y5001000D01*
X4359300Y4998400D01*
X4366100Y4991800D01*
X4368000Y4983900D01*
X4367100Y4976100D01*
X4363200Y4969500D01*
X4343700Y4956400D01*
X4334900Y4947200D01*
X4329100Y4934100D01*
X4327200Y4922300D01*
X4368000D01*
G01X5281000Y5871500D02*
Y5236500D01*
X4773000D01*
Y5871500D01*
X5281000D01*
G01X5001600Y4727000D02*
X5154000D01*
X5217500Y4663500D01*
X5344500D01*
X5408000Y4727000D01*
X5560400D01*
Y3711000D01*
X5001600D01*
Y4727000D01*
G01X5341600Y5079000D02*
X5301400Y5206000D01*
X5261100Y5079000D01*
G01X5204000Y5206000D02*
Y5079000D01*
X5163800D01*
X5150900Y5085400D01*
X5142900Y5093800D01*
X5139700Y5110800D01*
X5142900Y5127700D01*
X5152500Y5138300D01*
X5163800Y5144600D01*
X5204000D01*
G01X5163800D02*
X5139700Y5206000D01*
G01X5042400D02*
Y5079000D01*
X5061700Y5104400D01*
G01Y5206000D02*
X5023100D01*
G01X5673000Y1552400D02*
Y2263600D01*
X5927000D01*
Y1552400D01*
X5673000D01*
G01X5910100Y2022300D02*
Y2101000D01*
X5934500D01*
X5942300Y2097100D01*
X5947100Y2091800D01*
X5949100Y2081300D01*
X5947100Y2070800D01*
X5941300Y2064300D01*
X5934500Y2060300D01*
X5910100D01*
G01X5934500D02*
X5949100Y2022300D01*
G01X6008300D02*
Y2101000D01*
X5996600Y2085300D01*
G01Y2022300D02*
X6020000D01*
G01X6087000D02*
Y2101000D01*
X6075300Y2085300D01*
G01Y2022300D02*
X6098700D01*
G01X5805700Y4582200D02*
Y4491200D01*
X5812100Y4472100D01*
X5825000Y4459400D01*
X5841000Y4455200D01*
X5857100Y4459400D01*
X5870000Y4472100D01*
X5876400Y4491200D01*
Y4582200D01*
G01X5970500Y4455200D02*
Y4582200D01*
X5951200Y4556800D01*
G01Y4455200D02*
X5989800D01*
G01X6419000Y4428500D02*
Y5063500D01*
X6927000D01*
Y4428500D01*
X6419000D01*
G01X6358400Y5221000D02*
X6398600Y5094000D01*
X6438900Y5221000D01*
G01X6496000Y5094000D02*
Y5221000D01*
X6536200D01*
X6549100Y5214600D01*
X6557100Y5206200D01*
X6560300Y5189200D01*
X6557100Y5172300D01*
X6547500Y5161700D01*
X6536200Y5155400D01*
X6496000D01*
G01X6536200D02*
X6560300Y5094000D01*
G01X6627100Y5199800D02*
X6636700Y5212500D01*
X6648000Y5218900D01*
X6660900Y5221000D01*
X6677000Y5216800D01*
X6688200Y5206200D01*
X6691400Y5193500D01*
X6689800Y5180800D01*
X6683400Y5170200D01*
X6651200Y5149000D01*
X6636700Y5134200D01*
X6627100Y5113000D01*
X6623900Y5094000D01*
X6691400D01*
G01X6644600Y870000D02*
X6652400Y874900D01*
X6657700Y880700D01*
X6660300Y887600D01*
X6657700Y895300D01*
X6652400Y901200D01*
X6644600Y907000D01*
X6634100Y909000D01*
X6581600D01*
G01X6594700Y949700D02*
X6586800Y955500D01*
X6582900Y962400D01*
X6581600Y970100D01*
X6584200Y979900D01*
X6590800Y986700D01*
X6598700Y988600D01*
X6606500Y987700D01*
X6613100Y983800D01*
X6626200Y964300D01*
X6635400Y955500D01*
X6648500Y949700D01*
X6660300Y947800D01*
Y988600D01*
G01X6927000Y873000D02*
X6673000D01*
Y1381000D01*
X6927000D01*
Y873000D01*
G01X7177700Y2510100D02*
X7099000D01*
Y2534500D01*
X7102900Y2542300D01*
X7108200Y2547100D01*
X7118700Y2549100D01*
X7129200Y2547100D01*
X7135700Y2541300D01*
X7139700Y2534500D01*
Y2510100D01*
G01Y2534500D02*
X7177700Y2549100D01*
G01Y2608300D02*
X7099000D01*
X7114700Y2596600D01*
G01X7177700D02*
Y2620000D01*
G01X7112100Y2668500D02*
X7104200Y2674300D01*
X7100300Y2681200D01*
X7099000Y2688900D01*
X7101600Y2698700D01*
X7108200Y2705500D01*
X7116100Y2707400D01*
X7123900Y2706500D01*
X7130500Y2702600D01*
X7143600Y2683100D01*
X7152800Y2674300D01*
X7165900Y2668500D01*
X7177700Y2666600D01*
Y2707400D01*
G01X7647600Y2273000D02*
X6936400D01*
Y2527000D01*
X7647600D01*
Y2273000D01*
G01X7681000Y3571500D02*
Y2936500D01*
X7173000D01*
Y3571500D01*
X7681000D01*
G01X8727000Y1098400D02*
Y946000D01*
X8663500Y882500D01*
Y755500D01*
X8727000Y692000D01*
Y539600D01*
X7711000D01*
Y1098400D01*
X8727000D01*
G01X7741600Y2779000D02*
X7701400Y2906000D01*
X7661100Y2779000D01*
G01X7604000Y2906000D02*
Y2779000D01*
X7563800D01*
X7550900Y2785400D01*
X7542900Y2793800D01*
X7539700Y2810800D01*
X7542900Y2827700D01*
X7552500Y2838300D01*
X7563800Y2844600D01*
X7604000D01*
G01X7563800D02*
X7539700Y2906000D01*
G01X7477700Y2880600D02*
X7468100Y2895400D01*
X7455200Y2903900D01*
X7440700Y2906000D01*
X7427900Y2903900D01*
X7415000Y2893300D01*
X7407000Y2880600D01*
X7405400Y2867900D01*
X7408600Y2853100D01*
X7419800Y2842500D01*
X7431100Y2838300D01*
X7445600D01*
G01X7431100D02*
X7421400Y2831900D01*
X7413400Y2821300D01*
X7410200Y2808600D01*
X7413400Y2795900D01*
X7421400Y2785400D01*
X7435900Y2779000D01*
X7450400Y2781100D01*
X7464900Y2789600D01*
G01X7473000Y4652400D02*
Y5363600D01*
X7727000D01*
Y4652400D01*
X7473000D01*
G01X7749400Y5122300D02*
Y5201000D01*
X7773800D01*
X7781600Y5197100D01*
X7786400Y5191800D01*
X7788400Y5181300D01*
X7786400Y5170800D01*
X7780600Y5164300D01*
X7773800Y5160300D01*
X7749400D01*
G01X7773800D02*
X7788400Y5122300D01*
G01X7859300D02*
Y5201000D01*
X7823300Y5144600D01*
X7871900D01*
G01X8582200Y294300D02*
X8491200D01*
X8472100Y287900D01*
X8459400Y275000D01*
X8455200Y259000D01*
X8459400Y242900D01*
X8472100Y230000D01*
X8491200Y223600D01*
X8582200D01*
G01X8480600Y164800D02*
X8465800Y155200D01*
X8457300Y142300D01*
X8455200Y127800D01*
X8457300Y115000D01*
X8467900Y102100D01*
X8480600Y94100D01*
X8493300Y92500D01*
X8508100Y95700D01*
X8518700Y106900D01*
X8522900Y118200D01*
Y132700D01*
G01Y118200D02*
X8529300Y108500D01*
X8539900Y100500D01*
X8552600Y97300D01*
X8565300Y100500D01*
X8575800Y108500D01*
X8582200Y123000D01*
X8580100Y137500D01*
X8571600Y152000D01*
G01X9347600Y2273000D02*
X8636400D01*
Y2527000D01*
X9347600D01*
Y2273000D01*
G01X8652400Y3627000D02*
X9363600D01*
Y3373000D01*
X8652400D01*
Y3627000D01*
G01X8601600Y5927000D02*
X8754000D01*
X8817500Y5863500D01*
X8944500D01*
X9008000Y5927000D01*
X9160400D01*
Y4911000D01*
X8601600D01*
Y5927000D01*
G01X8877700Y2510100D02*
X8799000D01*
Y2534500D01*
X8802900Y2542300D01*
X8808200Y2547100D01*
X8818700Y2549100D01*
X8829200Y2547100D01*
X8835700Y2541300D01*
X8839700Y2534500D01*
Y2510100D01*
G01Y2534500D02*
X8877700Y2549100D01*
G01Y2608300D02*
X8799000D01*
X8814700Y2596600D01*
G01X8877700D02*
Y2620000D01*
G01X8799000Y2687000D02*
X8801600Y2679200D01*
X8808200Y2673400D01*
X8816100Y2669500D01*
X8826500Y2666600D01*
X8838400Y2665600D01*
X8850200Y2666600D01*
X8860600Y2669500D01*
X8868500Y2673400D01*
X8875100Y2679200D01*
X8877700Y2687000D01*
X8875100Y2694800D01*
X8868500Y2700600D01*
X8860600Y2704500D01*
X8850200Y2707400D01*
X8838400Y2708400D01*
X8826500Y2707400D01*
X8816100Y2704500D01*
X8808200Y2700600D01*
X8801600Y2694800D01*
X8799000Y2687000D01*
G01X9122300Y3350600D02*
X9201000D01*
Y3326200D01*
X9197100Y3318400D01*
X9191800Y3313600D01*
X9181300Y3311600D01*
X9170800Y3313600D01*
X9164300Y3319400D01*
X9160300Y3326200D01*
Y3350600D01*
G01Y3326200D02*
X9122300Y3311600D01*
G01Y3252400D02*
X9201000D01*
X9185300Y3264100D01*
G01X9122300D02*
Y3240700D01*
G01X9405700Y5782200D02*
Y5691200D01*
X9412100Y5672100D01*
X9425000Y5659400D01*
X9441000Y5655200D01*
X9457100Y5659400D01*
X9470000Y5672100D01*
X9476400Y5691200D01*
Y5782200D01*
G01X9540000Y5761000D02*
X9549600Y5773700D01*
X9560900Y5780100D01*
X9573800Y5782200D01*
X9589900Y5778000D01*
X9601100Y5767400D01*
X9604300Y5754700D01*
X9602700Y5742000D01*
X9596300Y5731400D01*
X9564100Y5710200D01*
X9549600Y5695400D01*
X9540000Y5674200D01*
X9536800Y5655200D01*
X9604300D01*
M02*
