G04 ================== begin FILE IDENTIFICATION RECORD ==================*
G04 Layout Name:  C:/USERS/USER/DESKTOP/WORK_ORCAD/MY_TEST731/allegro/MY_TEST731.brd*
G04 Film Name:    SolderB*
G04 File Format:  Gerber RS274X*
G04 File Origin:  Cadence Allegro 17.2-P019*
G04 Origin Date:  Wed Jul 31 11:56:04 2019*
G04 *
G04 Layer:  VIA CLASS/SOLDERMASK_BOTTOM*
G04 Layer:  PIN/SOLDERMASK_BOTTOM*
G04 Layer:  PACKAGE GEOMETRY/SOLDERMASK_BOTTOM*
G04 Layer:  BOARD GEOMETRY/SOLDERMASK_BOTTOM*
G04 *
G04 Offset:    (0.000 0.000)*
G04 Mirror:    No*
G04 Mode:      Positive*
G04 Rotation:  0*
G04 FullContactRelief:  No*
G04 UndefLineWidth:     0.000*
G04 ================== end FILE IDENTIFICATION RECORD ====================*
%FSLAX25Y25*MOMM*%
%IR0*IPPOS*OFA0.00000B0.00000*MIA0B0*SFA1.00000B1.00000*%
%ADD13C,2.032*%
%ADD12C,1.118*%
%ADD11C,1.905*%
%ADD10C,3.683*%
%ADD14R,1.905X1.905*%
%LPD*%
G75*
G54D10*
X500000Y500000D03*
Y6500000D03*
X9500000Y500000D03*
Y6500000D03*
G54D11*
X600000Y1592000D03*
Y1846000D03*
Y2100000D03*
X1800000Y1538000D03*
Y1792000D03*
Y2046000D03*
X2562000Y1538000D03*
Y1792000D03*
Y2046000D03*
Y2300000D03*
X2700000Y4746000D03*
Y5000000D03*
Y5346000D03*
Y5600000D03*
X2600000Y6100000D03*
X3400000Y4746000D03*
Y5000000D03*
X2854000Y6100000D03*
X4900000Y3838000D03*
Y4092000D03*
Y4346000D03*
Y5300000D03*
Y5808000D03*
X5662000Y3838000D03*
Y4092000D03*
Y4346000D03*
Y4600000D03*
X5154000Y5554000D03*
X6800000Y1000000D03*
Y1254000D03*
X7300000Y3000000D03*
Y3508000D03*
X6800000Y4492000D03*
X6546000Y4746000D03*
X6800000Y5000000D03*
X7838000Y438000D03*
Y1200000D03*
X7554000Y3254000D03*
X8092000Y438000D03*
X8346000D03*
X8600000D03*
X8092000Y1200000D03*
X8346000D03*
X8500000Y5038000D03*
Y5292000D03*
Y5546000D03*
X9262000Y5038000D03*
Y5292000D03*
Y5546000D03*
Y5800000D03*
G54D12*
X630500Y1846000D03*
X1800000Y1538000D03*
Y2046000D03*
X2600000Y6100000D03*
X3300000Y4316000D03*
X4300000Y1400000D03*
X7800000Y2400000D03*
X7254500Y3000000D03*
X7600000Y5516000D03*
X8500000Y5546000D03*
X9262000Y5292000D03*
G54D13*
X600000Y3300000D03*
Y4316000D03*
X1300000Y3300000D03*
Y4316000D03*
X2000000Y3300000D03*
X2600000D03*
X2000000Y4316000D03*
X2600000D03*
X3300000Y3300000D03*
Y4316000D03*
X4100000Y4300000D03*
Y5316000D03*
X4300000Y384000D03*
Y1400000D03*
Y2000000D03*
X5316000D03*
X5800000Y1400000D03*
Y2416000D03*
X6784000Y2400000D03*
X7800000D03*
X7600000Y4500000D03*
Y5516000D03*
X8484000Y2400000D03*
X8500000Y3500000D03*
X9500000Y2400000D03*
X9516000Y3500000D03*
G54D14*
X1800000Y2300000D03*
X4900000Y4600000D03*
X8600000Y1200000D03*
X8500000Y5800000D03*
M02*
