G04 ================== begin FILE IDENTIFICATION RECORD ==================*
G04 Layout Name:  C:/USERS/USER/DESKTOP/WORK_ORCAD/MY_TEST731/allegro/MY_TEST731.brd*
G04 Film Name:    TOP*
G04 File Format:  Gerber RS274X*
G04 File Origin:  Cadence Allegro 17.2-P019*
G04 Origin Date:  Wed Jul 31 12:00:46 2019*
G04 *
G04 Layer:  ETCH/TOP*
G04 Layer:  PIN/TOP*
G04 Layer:  VIA CLASS/TOP*
G04 *
G04 Offset:    (0.000 0.000)*
G04 Mirror:    No*
G04 Mode:      Positive*
G04 Rotation:  0*
G04 FullContactRelief:  No*
G04 UndefLineWidth:     0.000*
G04 ================== end FILE IDENTIFICATION RECORD ====================*
%FSLAX25Y25*MOMM*%
%IR0*IPPOS*OFA0.00000B0.00000*MIA0B0*SFA1.00000B1.00000*%
%ADD11C,1.524*%
%ADD13C,1.651*%
%ADD14R,1.524X1.524*%
%ADD12C,.61*%
%ADD10C,.635*%
%ADD15C,1.*%
%ADD16C,.5*%
G75*
%LPD*%
G75*
G54D10*
X500000Y500000D03*
Y6500000D03*
X9500000Y500000D03*
Y6500000D03*
G54D11*
X600000Y1592000D03*
Y1846000D03*
Y2100000D03*
X1800000Y1538000D03*
Y1792000D03*
Y2046000D03*
X2562000Y1538000D03*
Y1792000D03*
Y2046000D03*
Y2300000D03*
X2700000Y4746000D03*
Y5000000D03*
Y5346000D03*
Y5600000D03*
X2600000Y6100000D03*
X3400000Y4746000D03*
Y5000000D03*
X2854000Y6100000D03*
X4900000Y3838000D03*
Y4092000D03*
Y4346000D03*
Y5300000D03*
Y5808000D03*
X5662000Y3838000D03*
Y4092000D03*
Y4346000D03*
Y4600000D03*
X5154000Y5554000D03*
X6800000Y1000000D03*
Y1254000D03*
X7300000Y3000000D03*
Y3508000D03*
X6800000Y4492000D03*
X6546000Y4746000D03*
X6800000Y5000000D03*
X7838000Y438000D03*
Y1200000D03*
X7554000Y3254000D03*
X8092000Y438000D03*
X8346000D03*
X8600000D03*
X8092000Y1200000D03*
X8346000D03*
X8500000Y5038000D03*
Y5292000D03*
Y5546000D03*
X9262000Y5038000D03*
Y5292000D03*
Y5546000D03*
Y5800000D03*
G54D12*
X630500Y1846000D03*
X1800000Y1538000D03*
Y2046000D03*
X2600000Y6100000D03*
X3300000Y4316000D03*
X4300000Y1400000D03*
X7800000Y2400000D03*
X7254500Y3000000D03*
X7600000Y5516000D03*
X8500000Y5546000D03*
X9262000Y5292000D03*
G54D13*
X600000Y3300000D03*
Y4316000D03*
X1300000Y3300000D03*
Y4316000D03*
X2000000Y3300000D03*
X2600000D03*
X2000000Y4316000D03*
X2600000D03*
X3300000Y3300000D03*
Y4316000D03*
X4100000Y4300000D03*
Y5316000D03*
X4300000Y384000D03*
Y1400000D03*
Y2000000D03*
X5316000D03*
X5800000Y1400000D03*
Y2416000D03*
X6784000Y2400000D03*
X7800000D03*
X7600000Y4500000D03*
Y5516000D03*
X8484000Y2400000D03*
X8500000Y3500000D03*
X9500000Y2400000D03*
X9516000Y3500000D03*
G54D14*
X1800000Y2300000D03*
X4900000Y4600000D03*
X8600000Y1200000D03*
X8500000Y5800000D03*
G54D15*
G01X600000Y1846000D02*
X630500D01*
G01X1800000Y1538000D02*
X1786000Y1524000D01*
X1651000D01*
X1583000Y1592000D01*
X600000D01*
G01X2857500Y2440000D02*
X2757500Y2540000D01*
X1687500D01*
X1587500Y2440000D01*
Y2200000D01*
X1487500Y2100000D01*
X600000D01*
G01Y4316000D02*
X1300000D01*
G01D02*
X2000000D01*
G01X2562000Y2046000D02*
X2576000Y2032000D01*
X2757500D01*
X2857500Y2132000D01*
Y2440000D01*
G01X2000000Y4316000D02*
X2600000D01*
G01X7254500Y3000000D02*
X7239000Y2984500D01*
X7212000D01*
X7112000Y2884500D01*
Y2703500D01*
X7012000Y2603500D01*
X3873500D01*
X3710000Y2440000D01*
X2857500D01*
G01X7112000Y1170000D02*
Y862000D01*
X7012000Y762000D01*
X5751500D01*
X5651500Y862000D01*
Y1143000D01*
X5394500Y1400000D01*
X4300000D01*
G01X7300000Y3508000D02*
X7161000D01*
X7113000Y3556000D01*
X5016500D01*
X4900000Y3672500D01*
Y3838000D01*
G01X7112000Y1170000D02*
X7300000Y982000D01*
X7874000D01*
X8092000Y1200000D01*
G01X6800000Y1254000D02*
X6816000Y1270000D01*
X7012000D01*
X7112000Y1170000D01*
G54D16*
G01X1800000Y1792000D02*
X1814000Y1778000D01*
X1918500D01*
X1968500Y1728000D01*
Y450500D01*
X2035000Y384000D01*
X4300000D01*
G01X5800000Y2416000D02*
X5797000Y2413000D01*
X4177500D01*
X4127500Y2363000D01*
Y1969400D01*
X4077500Y1919400D01*
X1926600D01*
X1800000Y2046000D01*
G01X5800000Y1400000D02*
X5645600D01*
X5588000Y1457600D01*
Y1537500D01*
X5538000Y1587500D01*
X2921000D01*
X2716500Y1792000D01*
X2562000D01*
G01X2600000Y3300000D02*
X3300000D01*
G01X2700000Y4746000D02*
X2814000D01*
X2848500Y4711500D01*
X3111500D01*
X3400000Y5000000D01*
G01X3300000Y4316000D02*
X3963600D01*
X3979600Y4300000D01*
X4100000D01*
G01X4900000Y5808000D02*
Y6085500D01*
X4885500Y6100000D01*
X2854000D01*
G01X4900000Y4346000D02*
X4266400D01*
X4220400Y4300000D01*
X4100000D01*
G01Y5316000D02*
X4770000D01*
X4786000Y5300000D01*
X4900000D01*
G01X5662000Y4092000D02*
X6518500D01*
X6568500Y4142000D01*
Y4723500D01*
X6546000Y4746000D01*
G01X5800000Y1400000D02*
Y1245600D01*
X5802800Y1242800D01*
Y1034700D01*
X5837500Y1000000D01*
X6800000D01*
G01X6784000Y2400000D02*
X5936400D01*
X5920400Y2416000D01*
X5800000D01*
G01X6800000Y4492000D02*
X7471600D01*
X7479600Y4500000D01*
X7600000D01*
G01X7800000Y2400000D02*
X8484000D01*
G01X8500000Y3500000D02*
Y3379600D01*
X8509000Y3370600D01*
Y3302000D01*
X8461000Y3254000D01*
X7554000D01*
G01X7600000Y5516000D02*
X8356000D01*
X8386000Y5546000D01*
X8500000D01*
M02*
